<svg width="306" height="256" viewBox="0 0 306 256" fill="none" xmlns="http://www.w3.org/2000/svg">
<path d="M115.079 249.437C115.079 245.151 114.888 231.036 114.888 213.541C114.888 201.303 119.653 193.323 125.045 189.254C91.0962 185.921 55.3752 174.677 55.3752 124.369C55.3752 110.046 61.3505 98.3304 71.1149 89.1622C69.5556 85.8334 64.2836 72.4902 72.6305 54.422C72.6305 54.422 85.4698 50.8897 114.698 67.8669C139.771 62.0085 166.246 62.0085 191.319 67.8669C220.525 50.8897 233.359 54.422 233.359 54.422C241.711 72.4902 236.466 85.838 234.874 89.1622C244.666 98.3304 250.587 110.032 250.587 124.369C250.587 174.788 214.822 185.893 180.709 189.134C186.232 193.212 191.117 201.206 191.117 213.467C191.117 230.999 190.926 245.137 190.926 249.437C190.926 252.96 193.68 257.024 201.449 255.766C262.21 238.392 306 189.208 306 131.249C306 58.7634 237.486 0 152.981 0C68.5088 0 0 58.7495 0 131.249C0 189.231 43.8334 238.429 104.688 255.776C112.293 256.987 115.079 252.932 115.079 249.437Z" fill="#D0CFCE"/>
</svg>
