<svg width="269" height="256" viewBox="0 0 269 256" fill="none" xmlns="http://www.w3.org/2000/svg">
<path d="M108.512 219.061C108.512 215.765 108.381 204.91 108.381 191.456C108.381 182.044 111.646 175.907 115.341 172.778C92.0765 170.215 67.5975 161.568 67.5975 122.88C67.5975 111.865 71.6922 102.855 78.3836 95.8042C77.3151 93.2442 73.7023 82.9829 79.4223 69.0878C79.4223 69.0878 88.2208 66.3714 108.25 79.4274C125.432 74.9221 143.575 74.9221 160.757 79.4274C180.772 66.3714 189.567 69.0878 189.567 69.0878C195.29 82.9829 191.696 93.2478 190.605 95.8042C197.315 102.855 201.373 111.854 201.373 122.88C201.373 161.653 176.864 170.194 153.487 172.686C157.272 175.822 160.619 181.97 160.619 191.399C160.619 204.882 160.488 215.754 160.488 219.061C160.488 221.77 162.375 224.896 167.699 223.929C209.338 210.567 239.347 172.743 239.347 128.17C239.347 72.4265 192.395 27.2354 134.485 27.2354C76.5977 27.2354 29.6498 72.4158 29.6498 128.17C29.6498 172.761 59.6881 210.595 101.391 223.936C106.602 224.867 108.512 221.749 108.512 219.061Z" fill="#D0CFCE"/>
<path d="M108.512 219.061C108.512 215.765 108.381 204.91 108.381 191.456C108.381 182.044 111.646 175.907 115.341 172.778C92.0765 170.215 67.5975 161.568 67.5975 122.88C67.5975 111.865 71.6922 102.855 78.3836 95.8042C77.3151 93.2442 73.7023 82.9829 79.4223 69.0878C79.4223 69.0878 88.2208 66.3714 108.25 79.4274C125.432 74.9221 143.575 74.9221 160.757 79.4274C180.772 66.3714 189.567 69.0878 189.567 69.0878C195.29 82.9829 191.696 93.2478 190.605 95.8042C197.315 102.855 201.373 111.854 201.373 122.88C201.373 161.653 176.864 170.194 153.487 172.686C157.272 175.822 160.619 181.97 160.619 191.399C160.619 204.882 160.488 215.754 160.488 219.061C160.488 221.77 162.375 224.896 167.699 223.929C209.338 210.567 239.347 172.743 239.347 128.17C239.347 72.4265 192.395 27.2354 134.485 27.2354C76.5977 27.2354 29.6498 72.4158 29.6498 128.17C29.6498 172.761 59.6881 210.595 101.391 223.936C106.602 224.867 108.512 221.749 108.512 219.061Z" stroke="black" stroke-width="2" stroke-miterlimit="10" stroke-linecap="round" stroke-linejoin="round"/>
<path d="M60.8613 170.986C70.4556 173.76 74.2365 176.8 78.7535 184.003C83.2555 191.207 88.5421 199.246 108.392 194.666" stroke="black" stroke-width="2" stroke-miterlimit="10" stroke-linecap="round" stroke-linejoin="round"/>
</svg>
